<svg xmlns="http://www.w3.org/2000/svg" xmlns:xlink="http://www.w3.org/1999/xlink" width="445" zoomAndPan="magnify" viewBox="0 0 333.75 494.999988" height="660" preserveAspectRatio="xMidYMid meet" version="1.0"><defs><clipPath id="9fd79ff3e7"><path d="M 0 0.183594 L 333.125 0.183594 L 333.125 494.386719 L 0 494.386719 Z M 0 0.183594 " clip-rule="nonzero"/></clipPath><clipPath id="b2dd8c847f"><path d="M 0 0.183594 L 333.125 0.183594 L 333.125 494.386719 L 0 494.386719 Z M 0 0.183594 " clip-rule="nonzero"/></clipPath><clipPath id="31325ebbd3"><rect x="0" width="334" y="0" height="495"/></clipPath><clipPath id="1ff58be724"><path d="M 51.773438 121.59375 L 281.347656 121.59375 L 281.347656 363.722656 L 51.773438 363.722656 Z M 51.773438 121.59375 " clip-rule="nonzero"/></clipPath><clipPath id="d134e98193"><path d="M 166.5625 121.59375 L 175.390625 214.75 L 237.640625 144.550781 L 189.960938 225.34375 L 281.347656 205.035156 L 195.257812 242.121094 L 281.347656 279.648438 L 189.960938 259.339844 L 237.640625 340.128906 L 175.390625 269.492188 L 166.5625 363.089844 L 157.730469 269.492188 L 95.480469 340.128906 L 143.164062 259.339844 L 51.773438 279.648438 L 137.863281 242.121094 L 51.773438 205.035156 L 143.164062 225.34375 L 95.480469 144.550781 L 157.730469 214.75 Z M 166.5625 121.59375 " clip-rule="nonzero"/></clipPath><clipPath id="8c4bb5edd1"><path d="M 0.773438 0.59375 L 230.347656 0.59375 L 230.347656 242.273438 L 0.773438 242.273438 Z M 0.773438 0.59375 " clip-rule="nonzero"/></clipPath><clipPath id="dfbe0b78d9"><path d="M 115.5625 0.59375 L 124.390625 93.75 L 186.640625 23.550781 L 138.960938 104.34375 L 230.347656 84.035156 L 144.257812 121.121094 L 230.347656 158.648438 L 138.960938 138.339844 L 186.640625 219.128906 L 124.390625 148.492188 L 115.5625 242.089844 L 106.730469 148.492188 L 44.480469 219.128906 L 92.164062 138.339844 L 0.773438 158.648438 L 86.863281 121.121094 L 0.773438 84.035156 L 92.164062 104.34375 L 44.480469 23.550781 L 106.730469 93.75 Z M 115.5625 0.59375 " clip-rule="nonzero"/></clipPath><clipPath id="07f2592391"><rect x="0" width="231" y="0" height="243"/></clipPath></defs><g clip-path="url(#9fd79ff3e7)"><g transform="matrix(1, 0, 0, 1, 0, 0.00000000000003389)"><g clip-path="url(#31325ebbd3)"><g clip-path="url(#b2dd8c847f)"><path fill="#d3d1d1" d="M 0 0.183594 L 333.125 0.183594 L 333.125 494.664062 L 0 494.664062 Z M 0 0.183594 " fill-opacity="1" fill-rule="nonzero"/></g></g></g></g><g clip-path="url(#1ff58be724)"><g clip-path="url(#d134e98193)"><g transform="matrix(1, 0, 0, 1, 51, 121)"><g clip-path="url(#07f2592391)"><g clip-path="url(#8c4bb5edd1)"><g clip-path="url(#dfbe0b78d9)"><path fill="#f0efed" d="M 0.773438 0.59375 L 230.347656 0.59375 L 230.347656 243.621094 L 0.773438 243.621094 Z M 0.773438 0.59375 " fill-opacity="1" fill-rule="nonzero"/></g></g></g></g></g></g></svg>